<svg xmlns="http://www.w3.org/2000/svg" xmlns:xlink="http://www.w3.org/1999/xlink" style="isolation:isolate" viewBox="0 0 320 175" width="320" height="175"><defs><clipPath id="_clipPath_d5eajmOI7MW68xb0jPqeiUUxezlYE0MZ"><rect width="320" height="175"></rect></clipPath></defs><g clip-path="url(#_clipPath_d5eajmOI7MW68xb0jPqeiUUxezlYE0MZ)"><g id="Page 1"><linearGradient id="_lgradient_0" x1="0.00022682937894091815%" y1="50.00061862047633%" x2="99.99999999999997%" y2="50.00061862047633%"><stop offset="0%" stop-opacity="1" style="stop-color:rgb(183,26,157)"></stop><stop offset="56.699999999999996%" stop-opacity="1" style="stop-color:rgb(30,156,215)"></stop><stop offset="86.5%" stop-opacity="1" style="stop-color:rgb(0,117,190)"></stop><stop offset="99.4%" stop-opacity="1" style="stop-color:rgb(0,91,151)"></stop><stop offset="100%" stop-opacity="1" style="stop-color:rgb(0,91,151)"></stop></linearGradient><path d=" M 155.64 6.034 L 155.64 10.589 C 156.957 10.232 158.313 10.057 159.674 10.068 C 161.035 10.057 162.396 10.232 163.707 10.589 L 163.707 6.034 C 163.707 3.806 161.902 2 159.674 2 C 157.446 2 155.64 3.806 155.64 6.034 Z M 179.837 10.068 L 179.837 14.623 C 181.154 14.26 182.504 14.085 183.871 14.101 C 185.232 14.085 186.587 14.26 187.899 14.623 L 187.899 10.068 C 187.899 7.839 186.093 6.034 183.871 6.034 C 181.643 6.034 179.837 7.839 179.837 10.068 Z M 131.448 10.068 L 131.448 14.623 C 132.76 14.266 134.121 14.085 135.482 14.101 C 136.843 14.085 138.199 14.266 139.51 14.623 L 139.51 10.068 C 139.51 7.839 137.705 6.034 135.482 6.034 C 133.254 6.034 131.448 7.839 131.448 10.068 Z M 204.034 14.101 L 204.034 18.656 C 205.346 18.294 206.701 18.119 208.062 18.13 C 209.423 18.119 210.779 18.294 212.096 18.656 L 212.096 14.101 C 212.096 11.873 210.291 10.068 208.062 10.068 C 205.834 10.068 204.034 11.873 204.034 14.101 Z M 107.251 14.101 L 107.251 18.656 C 108.563 18.294 109.924 18.119 111.285 18.13 C 112.646 18.119 114.002 18.294 115.319 18.656 L 115.319 14.101 C 115.319 11.873 113.513 10.068 111.285 10.068 C 109.057 10.068 107.251 11.873 107.251 14.101 Z M 83.06 14.101 L 83.06 22.163 C 83.049 22.339 83.065 22.515 83.098 22.69 C 84.399 22.328 85.743 22.152 87.088 22.163 C 88.438 22.152 89.782 22.328 91.083 22.69 C 91.116 22.515 91.127 22.339 91.122 22.163 L 91.122 14.101 C 91.122 11.873 89.316 10.068 87.088 10.068 C 84.865 10.068 83.06 11.873 83.06 14.101 Z M 228.226 18.13 L 228.226 22.69 C 229.537 22.328 230.893 22.152 232.26 22.163 C 233.621 22.152 234.982 22.328 236.293 22.69 L 236.293 18.13 C 236.293 15.901 234.488 14.101 232.26 14.101 C 230.031 14.101 228.226 15.901 228.226 18.13 Z M 151.606 26.197 L 151.612 66.518 C 151.623 70.969 155.223 74.569 159.674 74.586 C 164.119 74.569 167.725 70.969 167.736 66.518 L 167.736 26.197 C 167.736 21.741 164.13 18.13 159.674 18.13 C 155.217 18.13 151.606 21.741 151.606 26.197 Z M 58.862 22.163 L 58.862 26.356 C 59.526 26.241 60.202 26.186 60.877 26.197 L 64.91 26.197 C 65.585 26.186 66.266 26.241 66.93 26.356 L 66.93 22.163 C 66.93 19.935 65.119 18.13 62.896 18.13 C 60.668 18.13 58.862 19.935 58.862 22.163 Z M 242.983 26.274 C 245.036 28.08 246.578 30.385 247.462 32.969 C 248.082 34.676 248.395 36.476 248.389 38.293 C 248.389 40.521 246.584 42.327 244.355 42.327 C 242.133 42.327 240.327 40.521 240.327 38.293 C 240.333 36.762 239.899 35.269 239.076 33.979 C 239.026 33.919 238.988 33.848 238.955 33.776 C 236.974 30.829 233.297 29.523 229.9 30.56 C 226.503 31.603 224.187 34.742 224.192 38.293 L 224.192 54.423 C 224.208 58.873 227.809 62.474 232.26 62.49 C 234.943 62.49 237.451 61.162 238.955 58.939 C 238.988 58.868 239.026 58.797 239.076 58.736 C 239.899 57.452 240.333 55.948 240.327 54.423 C 240.327 52.194 242.133 50.389 244.355 50.389 C 246.584 50.389 248.389 52.194 248.389 54.423 C 248.395 56.239 248.082 58.039 247.462 59.746 C 246.578 62.331 245.036 64.636 242.983 66.442 C 246.951 69.142 251.649 70.58 256.451 70.552 C 269.82 70.552 280.648 59.724 280.648 46.36 C 280.648 32.997 269.82 22.163 256.451 22.163 C 256.407 22.163 256.363 22.163 256.319 22.163 C 251.561 22.163 246.918 23.596 242.983 26.274 Z M 175.803 30.231 L 175.803 62.49 C 175.814 66.935 179.42 70.541 183.871 70.552 C 188.322 70.541 191.922 66.935 191.933 62.49 L 191.933 30.231 C 191.933 25.775 188.322 22.163 183.871 22.163 C 179.414 22.163 175.803 25.775 175.803 30.231 Z M 127.415 30.231 L 127.415 62.49 C 127.431 66.935 131.031 70.541 135.482 70.552 C 139.927 70.541 143.533 66.935 143.544 62.49 L 143.544 30.231 C 143.544 25.775 139.938 22.163 135.482 22.163 C 131.026 22.163 127.415 25.775 127.415 30.231 Z M 200 34.259 L 200 58.456 C 200.011 62.902 203.617 66.507 208.062 66.524 C 212.513 66.507 216.114 62.902 216.13 58.456 L 216.13 34.259 C 216.13 29.808 212.519 26.197 208.062 26.197 C 203.606 26.197 200 29.808 200 34.259 Z M 103.217 34.259 C 103.223 34.715 103.141 35.165 102.976 35.593 C 103.141 36.482 103.217 37.387 103.217 38.293 C 103.217 40.521 101.412 42.327 99.189 42.327 C 96.961 42.327 95.155 40.521 95.155 38.293 C 95.155 33.842 91.544 30.231 87.088 30.231 C 82.637 30.231 79.026 33.842 79.026 38.293 C 79.02 38.54 78.993 38.781 78.943 39.017 C 78.954 39.028 78.96 39.045 78.96 39.061 C 78.96 39.072 78.954 39.089 78.943 39.1 C 79.009 39.5 79.037 39.906 79.026 40.307 L 79.026 52.408 C 79.037 52.809 79.009 53.215 78.943 53.616 C 78.954 53.627 78.96 53.643 78.96 53.654 C 78.96 53.671 78.954 53.687 78.943 53.698 C 78.993 53.934 79.02 54.181 79.026 54.423 C 79.026 58.879 82.637 62.49 87.088 62.49 C 91.544 62.49 95.155 58.879 95.155 54.423 C 95.155 52.194 96.961 50.389 99.189 50.389 C 101.412 50.389 103.217 52.194 103.217 54.423 C 103.217 55.328 103.141 56.234 102.976 57.128 C 103.141 57.551 103.223 58.001 103.217 58.456 C 103.217 62.913 106.829 66.524 111.285 66.524 C 115.736 66.524 119.352 62.913 119.352 58.456 L 119.352 34.259 C 119.352 29.808 115.736 26.197 111.285 26.197 C 106.829 26.197 103.217 29.808 103.217 34.259 Z M 54.949 39.1 C 54.873 39.5 54.829 39.901 54.829 40.313 L 54.829 52.408 C 54.829 55.745 57.54 58.456 60.877 58.456 L 64.91 58.456 C 67.792 58.467 70.278 56.442 70.837 53.616 C 70.92 53.221 70.958 52.815 70.958 52.408 L 70.958 40.313 C 70.958 38.705 70.322 37.168 69.186 36.032 C 68.055 34.901 66.513 34.259 64.91 34.259 L 60.877 34.259 C 60.871 34.259 60.86 34.259 60.855 34.259 C 57.984 34.259 55.515 36.284 54.949 39.1 Z M 42.733 34.259 C 40.505 34.259 38.699 36.065 38.699 38.293 C 38.699 40.521 40.505 42.327 42.733 42.327 L 46.767 42.327 L 46.767 40.313 C 46.75 38.211 47.233 36.136 48.177 34.259 L 42.733 34.259 Z M 42.733 50.389 C 40.505 50.389 38.699 52.194 38.699 54.423 C 38.699 56.651 40.505 58.456 42.733 58.456 L 48.177 58.456 C 47.233 56.579 46.75 54.505 46.767 52.408 L 46.767 50.389 L 42.733 50.389 Z M 64.91 66.518 L 60.877 66.518 C 60.202 66.529 59.526 66.474 58.862 66.359 L 58.862 70.552 C 58.862 72.78 60.668 74.586 62.896 74.586 C 65.119 74.586 66.93 72.78 66.93 70.552 L 66.93 66.359 C 66.26 66.474 65.585 66.529 64.91 66.518 Z M 228.226 70.031 L 228.226 74.586 C 228.226 76.814 230.031 78.62 232.26 78.62 C 234.488 78.62 236.293 76.814 236.293 74.586 L 236.293 70.031 C 233.648 70.728 230.871 70.728 228.226 70.031 Z M 83.098 70.031 C 83.065 70.201 83.049 70.376 83.06 70.552 L 83.06 78.62 C 83.06 80.848 84.865 82.653 87.088 82.653 C 89.316 82.653 91.122 80.842 91.122 78.62 L 91.122 70.552 C 91.127 70.376 91.116 70.201 91.083 70.031 C 88.465 70.728 85.716 70.728 83.098 70.031 Z M 204.029 74.065 L 204.029 78.62 C 204.029 80.848 205.834 82.653 208.062 82.653 C 210.291 82.653 212.096 80.848 212.096 78.62 L 212.096 74.065 C 209.451 74.761 206.674 74.761 204.029 74.065 Z M 107.251 74.065 L 107.251 78.62 C 107.251 80.848 109.057 82.653 111.285 82.653 C 113.513 82.653 115.319 80.842 115.319 78.62 L 115.319 74.065 C 112.673 74.761 109.896 74.761 107.251 74.065 Z M 179.837 78.093 L 179.837 82.653 C 179.837 84.882 181.643 86.682 183.871 86.682 C 186.093 86.682 187.899 84.882 187.899 82.653 L 187.899 78.093 C 185.259 78.795 182.477 78.795 179.837 78.093 Z M 131.448 78.093 L 131.448 82.653 C 131.448 84.882 133.248 86.682 135.482 86.682 C 137.705 86.682 139.51 84.882 139.51 82.653 L 139.51 78.093 C 136.871 78.795 134.094 78.795 131.448 78.093 Z M 155.64 82.127 L 155.64 86.682 C 155.64 88.91 157.446 90.715 159.674 90.715 C 161.902 90.715 163.707 88.91 163.707 86.682 L 163.707 82.127 C 161.062 82.824 158.285 82.824 155.64 82.127 Z " fill="url(#_lgradient_0)"></path><linearGradient id="_lgradient_1" x1="-0.004021986861491023%" y1="49.99698492462312%" x2="99.99865933771284%" y2="49.99698492462312%"><stop offset="0%" stop-opacity="1" style="stop-color:rgb(183,26,157)"></stop><stop offset="56.699999999999996%" stop-opacity="1" style="stop-color:rgb(30,156,215)"></stop><stop offset="86.5%" stop-opacity="1" style="stop-color:rgb(0,117,190)"></stop><stop offset="99.4%" stop-opacity="1" style="stop-color:rgb(0,91,151)"></stop><stop offset="100%" stop-opacity="1" style="stop-color:rgb(0,91,151)"></stop></linearGradient><path d=" M 23.81 117.393 C 20.281 117.393 17.015 118.183 14.013 119.764 L 14.013 134.461 C 14.908 132.617 16.236 131.13 18.003 129.994 C 19.765 128.863 21.702 128.298 23.81 128.298 L 32.503 128.298 C 33.924 128.298 35.269 128.035 36.531 127.508 C 37.799 126.981 38.908 126.24 39.852 125.296 C 40.801 124.347 41.553 123.238 42.107 121.976 C 42.661 120.708 42.936 119.369 42.936 117.942 L 42.936 117.393 L 23.81 117.393 Z M 4.881 128.337 C 2.96 131.684 2 135.306 2 139.203 L 2 150.19 C 2 153.192 2.565 156.024 3.696 158.686 C 4.832 161.342 6.385 163.664 8.361 165.639 C 10.336 167.615 12.652 169.168 15.314 170.304 C 17.976 171.435 20.808 172 23.81 172 L 42.936 172 L 42.936 171.446 C 42.936 170.024 42.661 168.68 42.107 167.417 C 41.553 166.15 40.801 165.047 39.852 164.097 C 38.908 163.148 37.799 162.412 36.531 161.885 C 35.269 161.359 33.924 161.095 32.503 161.095 L 23.81 161.095 C 22.284 161.095 20.857 160.804 19.546 160.222 C 18.223 159.646 17.081 158.867 16.104 157.896 C 15.128 156.919 14.354 155.772 13.772 154.454 C 13.196 153.137 12.905 151.716 12.905 150.19 L 12.905 120.313 C 9.48 122.316 6.808 124.989 4.881 128.337 Z " fill="url(#_lgradient_1)"></path><linearGradient id="_lgradient_2" x1="0.003019323671527019%" y1="49.99879227053139%" x2="100.00301932367148%" y2="49.99879227053139%"><stop offset="0%" stop-opacity="1" style="stop-color:rgb(183,26,157)"></stop><stop offset="56.699999999999996%" stop-opacity="1" style="stop-color:rgb(30,156,215)"></stop><stop offset="86.5%" stop-opacity="1" style="stop-color:rgb(0,117,190)"></stop><stop offset="99.4%" stop-opacity="1" style="stop-color:rgb(0,91,151)"></stop><stop offset="100%" stop-opacity="1" style="stop-color:rgb(0,91,151)"></stop></linearGradient><path d=" M 55.394 128.468 L 55.394 140.784 C 56.14 139.203 57.249 137.952 58.72 137.03 C 60.191 136.108 61.804 135.647 63.56 135.647 C 64.79 135.647 65.964 135.888 67.084 136.371 C 68.203 136.854 69.169 137.502 69.981 138.314 C 70.794 139.126 71.441 140.092 71.924 141.212 C 72.407 142.331 72.649 143.506 72.649 144.735 L 72.649 153.823 C 72.649 155.097 72.407 156.282 71.924 157.38 C 71.441 158.477 70.794 159.432 69.981 160.244 C 69.169 161.057 68.203 161.704 67.084 162.187 C 65.964 162.67 64.79 162.912 63.56 162.912 C 62.287 162.912 61.102 162.67 60.004 162.187 C 58.906 161.704 57.951 161.057 57.139 160.244 C 56.327 159.432 55.679 158.477 55.196 157.38 C 54.713 156.282 54.472 155.097 54.472 153.823 L 54.472 144.735 L 54.472 128.995 C 51.618 130.62 49.39 132.826 47.787 135.614 C 46.185 138.402 45.384 141.442 45.384 144.735 L 45.384 153.823 C 45.384 156.326 45.856 158.686 46.8 160.903 C 47.743 163.12 49.039 165.052 50.685 166.698 C 52.332 168.345 54.263 169.64 56.481 170.584 C 58.698 171.528 61.058 172 63.56 172 C 66.063 172 68.412 171.528 70.607 170.584 C 72.802 169.64 74.723 168.345 76.37 166.698 C 78.016 165.052 79.322 163.12 80.288 160.903 C 81.254 158.686 81.737 156.326 81.737 153.823 L 81.737 144.735 C 81.737 142.232 81.254 139.873 80.288 137.655 C 79.322 135.438 78.016 133.506 76.37 131.86 C 74.723 130.213 72.802 128.918 70.607 127.974 C 68.412 127.03 66.063 126.558 63.56 126.558 C 60.663 126.558 57.94 127.195 55.394 128.468 Z " fill="url(#_lgradient_2)"></path><linearGradient id="_lgradient_3" x1="-0.0012789359252529664%" y1="49.99698492462308%" x2="100.0025578718506%" y2="49.99698492462308%"><stop offset="0%" stop-opacity="1" style="stop-color:rgb(183,26,157)"></stop><stop offset="56.699999999999996%" stop-opacity="1" style="stop-color:rgb(30,156,215)"></stop><stop offset="86.5%" stop-opacity="1" style="stop-color:rgb(0,117,190)"></stop><stop offset="99.4%" stop-opacity="1" style="stop-color:rgb(0,91,151)"></stop><stop offset="100%" stop-opacity="1" style="stop-color:rgb(0,91,151)"></stop></linearGradient><path d=" M 84.464 117.393 L 84.464 117.942 C 84.464 119.369 84.739 120.708 85.293 121.976 C 85.847 123.238 86.583 124.347 87.505 125.296 C 88.427 126.24 89.525 126.981 90.787 127.508 C 92.049 128.035 93.394 128.298 94.815 128.298 L 95.369 128.298 L 111.016 128.298 C 112.547 128.298 113.837 128.825 114.891 129.879 C 115.944 130.932 116.471 132.222 116.471 133.748 L 116.471 139.28 C 116.471 141.234 115.61 142.759 113.886 143.868 C 115.835 144.181 117.662 144.801 119.369 145.723 C 121.081 146.645 122.59 147.847 123.908 149.318 C 125.011 147.896 125.861 146.332 126.471 144.62 C 127.074 142.907 127.376 141.129 127.376 139.28 L 127.376 133.748 C 127.376 131.487 126.943 129.363 126.075 127.387 C 125.208 125.411 124.034 123.688 122.563 122.212 C 121.092 120.735 119.352 119.567 117.355 118.694 C 115.357 117.827 113.228 117.393 110.967 117.393 L 84.464 117.393 Z M 84.464 161.649 C 84.464 163.071 84.739 164.415 85.293 165.678 C 85.847 166.945 86.583 168.038 87.505 168.96 C 88.427 169.882 89.525 170.617 90.787 171.171 C 92.049 171.726 93.394 172 94.815 172 L 95.369 172 L 95.369 155.64 L 111.016 155.64 C 112.547 155.64 113.837 156.167 114.891 157.22 C 115.944 158.274 116.471 159.564 116.471 161.095 L 116.471 163.784 C 116.471 164.942 116.68 166.018 117.097 167.022 C 117.519 168.021 118.107 168.894 118.864 169.629 C 119.621 170.37 120.499 170.946 121.493 171.369 C 122.486 171.791 123.529 172 124.632 172 L 127.376 172 L 127.376 161.095 C 127.376 158.829 126.943 156.694 126.075 154.69 C 125.208 152.687 124.039 150.953 122.569 149.477 C 121.092 148 119.363 146.842 117.366 145.997 C 115.368 145.158 113.239 144.735 110.978 144.735 L 95.369 144.735 L 95.369 129.401 L 94.815 129.401 C 92.603 129.401 90.562 128.808 88.69 127.623 C 86.819 126.438 85.414 124.846 84.464 122.843 L 84.464 161.649 Z " fill="url(#_lgradient_3)"></path><linearGradient id="_lgradient_4" x1="-0.003019323671438201%" y1="49.99879227053139%" x2="99.99698067632848%" y2="49.99879227053139%"><stop offset="0%" stop-opacity="1" style="stop-color:rgb(183,26,157)"></stop><stop offset="56.699999999999996%" stop-opacity="1" style="stop-color:rgb(30,156,215)"></stop><stop offset="86.5%" stop-opacity="1" style="stop-color:rgb(0,117,190)"></stop><stop offset="99.4%" stop-opacity="1" style="stop-color:rgb(0,91,151)"></stop><stop offset="100%" stop-opacity="1" style="stop-color:rgb(0,91,151)"></stop></linearGradient><path d=" M 139.916 128.468 L 139.916 140.784 C 140.663 139.203 141.766 137.952 143.242 137.03 C 144.713 136.108 146.327 135.647 148.083 135.647 C 149.312 135.647 150.487 135.888 151.606 136.371 C 152.726 136.854 153.692 137.502 154.504 138.314 C 155.316 139.126 155.964 140.092 156.447 141.212 C 156.93 142.331 157.171 143.506 157.171 144.735 L 157.171 153.823 C 157.171 155.097 156.93 156.282 156.447 157.38 C 155.964 158.477 155.316 159.432 154.504 160.244 C 153.692 161.057 152.726 161.704 151.606 162.187 C 150.487 162.67 149.312 162.912 148.083 162.912 C 146.81 162.912 145.624 162.67 144.526 162.187 C 143.429 161.704 142.474 161.057 141.662 160.244 C 140.849 159.432 140.202 158.477 139.719 157.38 C 139.236 156.282 138.994 155.097 138.994 153.823 L 138.994 144.735 L 138.994 128.995 C 136.135 130.62 133.912 132.826 132.31 135.614 C 130.707 138.402 129.906 141.442 129.906 144.735 L 129.906 153.823 C 129.906 156.326 130.378 158.686 131.322 160.903 C 132.266 163.12 133.561 165.052 135.208 166.698 C 136.854 168.345 138.786 169.64 141.003 170.584 C 143.22 171.528 145.58 172 148.083 172 C 150.585 172 152.934 171.528 155.13 170.584 C 157.325 169.64 159.246 168.345 160.892 166.698 C 162.538 165.052 163.845 163.12 164.811 160.903 C 165.771 158.686 166.259 156.326 166.259 153.823 L 166.259 144.735 C 166.259 142.232 165.771 139.873 164.811 137.655 C 163.845 135.438 162.538 133.506 160.892 131.86 C 159.246 130.213 157.325 128.918 155.13 127.974 C 152.934 127.03 150.585 126.558 148.083 126.558 C 145.185 126.558 142.463 127.195 139.916 128.468 Z " fill="url(#_lgradient_4)"></path><linearGradient id="_lgradient_5" x1="0.25928633637892773%" y1="49.99698492462312%" x2="100.0075428765422%" y2="49.99698492462312%"><stop offset="0%" stop-opacity="1" style="stop-color:rgb(183,26,157)"></stop><stop offset="56.699999999999996%" stop-opacity="1" style="stop-color:rgb(30,156,215)"></stop><stop offset="86.5%" stop-opacity="1" style="stop-color:rgb(0,117,190)"></stop><stop offset="99.4%" stop-opacity="1" style="stop-color:rgb(0,91,151)"></stop><stop offset="100%" stop-opacity="1" style="stop-color:rgb(0,91,151)"></stop></linearGradient><path d=" M 185.424 117.393 C 184.052 117.393 182.603 117.602 181.077 118.024 L 181.077 130.51 C 181.599 129.824 182.235 129.286 182.971 128.891 C 183.712 128.496 184.524 128.298 185.424 128.298 L 202.333 128.298 C 203.754 128.298 205.099 128.035 206.367 127.508 C 207.629 126.981 208.737 126.24 209.681 125.296 C 210.631 124.347 211.372 123.238 211.899 121.976 C 212.425 120.708 212.683 119.369 212.683 117.942 L 212.683 117.393 L 185.424 117.393 Z M 174.87 121.224 C 173.367 122.519 172.143 124.017 171.199 125.73 C 170.249 127.442 169.602 129.286 169.261 131.262 C 168.916 133.237 168.954 135.224 169.377 137.227 C 169.799 139.126 170.513 140.866 171.512 142.441 C 172.51 144.027 173.723 145.394 175.15 146.552 C 176.572 147.71 178.152 148.61 179.892 149.241 C 181.626 149.872 183.47 150.19 185.424 150.19 L 196.329 150.19 C 197.855 150.19 199.144 150.717 200.198 151.771 C 201.252 152.825 201.779 154.114 201.779 155.64 C 201.779 157.171 201.252 158.461 200.198 159.515 C 199.144 160.568 197.855 161.095 196.329 161.095 L 177.203 161.095 C 176.094 161.095 175.04 161.304 174.042 161.726 C 173.043 162.149 172.17 162.725 171.435 163.466 C 170.694 164.201 170.118 165.074 169.695 166.073 C 169.272 167.072 169.064 168.131 169.064 169.234 L 169.064 172 L 196.329 172 C 198.59 172 200.714 171.566 202.69 170.694 C 204.665 169.827 206.389 168.652 207.865 167.181 C 209.341 165.705 210.51 163.976 211.383 162.006 C 212.25 160.025 212.683 157.907 212.683 155.64 C 212.683 153.379 212.266 151.244 211.421 149.241 C 210.581 147.238 209.418 145.498 207.942 144.027 C 206.471 142.551 204.731 141.393 202.728 140.548 C 200.725 139.702 198.59 139.28 196.329 139.28 L 185.424 139.28 C 183.997 139.28 182.735 138.731 181.626 137.622 C 180.523 136.514 179.969 135.224 179.969 133.748 L 179.969 118.337 C 178.07 118.974 176.374 119.934 174.87 121.224 Z " fill="url(#_lgradient_5)"></path><linearGradient id="_lgradient_6" x1="0.006885866758388204%" y1="50%" x2="99.99311413324143%" y2="50%"><stop offset="0%" stop-opacity="1" style="stop-color:rgb(183,26,157)"></stop><stop offset="56.699999999999996%" stop-opacity="1" style="stop-color:rgb(30,156,215)"></stop><stop offset="86.5%" stop-opacity="1" style="stop-color:rgb(0,117,190)"></stop><stop offset="99.4%" stop-opacity="1" style="stop-color:rgb(0,91,151)"></stop><stop offset="100%" stop-opacity="1" style="stop-color:rgb(0,91,151)"></stop></linearGradient><path d=" M 224.938 126.493 L 224.472 126.493 C 223.292 126.493 222.167 126.723 221.113 127.184 C 220.059 127.645 219.148 128.26 218.386 129.028 C 217.617 129.796 217.003 130.707 216.536 131.761 C 216.081 132.815 215.845 133.934 215.845 135.12 L 215.845 149.74 C 216.635 148.072 217.809 146.744 219.373 145.756 C 220.927 144.768 222.633 144.274 224.472 144.274 L 224.938 144.274 L 224.938 135.581 L 239.032 135.581 C 240.217 135.581 241.331 135.361 242.391 134.922 C 243.439 134.483 244.361 133.869 245.157 133.078 C 245.941 132.288 246.567 131.366 247.028 130.312 C 247.489 129.259 247.725 128.139 247.725 126.954 L 247.725 126.493 L 224.938 126.493 Z M 224.938 145.196 L 224.472 145.196 C 223.292 145.196 222.167 145.427 221.113 145.888 C 220.059 146.349 219.148 146.963 218.386 147.732 C 217.617 148.5 217.003 149.411 216.536 150.465 C 216.081 151.518 215.845 152.638 215.845 153.823 L 215.845 165.151 C 215.845 166.073 216.02 166.951 216.371 167.785 C 216.723 168.619 217.217 169.355 217.853 169.991 C 218.49 170.628 219.225 171.122 220.059 171.473 C 220.894 171.824 221.772 172 222.694 172 L 239.032 172 C 240.217 172 241.331 171.769 242.391 171.308 C 243.439 170.847 244.361 170.233 245.157 169.464 C 245.941 168.696 246.567 167.785 247.028 166.731 C 247.489 165.678 247.725 164.558 247.725 163.373 L 247.725 162.912 L 224.938 162.912 L 224.938 154.284 L 234.482 154.284 C 235.673 154.284 236.787 154.054 237.846 153.593 C 238.895 153.132 239.817 152.517 240.612 151.749 C 241.403 150.981 242.023 150.069 242.489 149.016 C 242.945 147.962 243.175 146.842 243.175 145.657 L 243.175 145.196 L 224.938 145.196 Z " fill="url(#_lgradient_6)"></path><linearGradient id="_lgradient_7" x1="0.003217503217278761%" y1="50%" x2="100.00482625482618%" y2="50%"><stop offset="0%" stop-opacity="1" style="stop-color:rgb(183,26,157)"></stop><stop offset="56.699999999999996%" stop-opacity="1" style="stop-color:rgb(30,156,215)"></stop><stop offset="86.5%" stop-opacity="1" style="stop-color:rgb(0,117,190)"></stop><stop offset="99.4%" stop-opacity="1" style="stop-color:rgb(0,91,151)"></stop><stop offset="100%" stop-opacity="1" style="stop-color:rgb(0,91,151)"></stop></linearGradient><path d=" M 268.531 126.493 C 265.589 126.493 262.867 127.151 260.37 128.468 L 260.37 140.718 C 261.111 139.181 262.219 137.941 263.69 136.997 C 265.161 136.053 266.774 135.581 268.531 135.581 L 275.775 135.581 C 276.96 135.581 278.08 135.361 279.134 134.922 C 280.187 134.483 281.109 133.869 281.9 133.078 C 282.69 132.288 283.316 131.366 283.782 130.312 C 284.238 129.259 284.468 128.139 284.468 126.954 L 284.468 126.493 L 268.531 126.493 Z M 252.758 135.614 C 251.155 138.402 250.354 141.42 250.354 144.669 L 250.354 153.823 C 250.354 156.326 250.826 158.686 251.77 160.903 C 252.714 163.12 254.009 165.052 255.655 166.698 C 257.302 168.345 259.234 169.64 261.456 170.584 C 263.668 171.528 266.028 172 268.531 172 L 284.468 172 L 284.468 171.539 C 284.468 170.354 284.238 169.234 283.782 168.18 C 283.316 167.127 282.69 166.205 281.9 165.414 C 281.109 164.624 280.187 164.009 279.134 163.57 C 278.08 163.131 276.96 162.912 275.775 162.912 L 268.531 162.912 C 267.257 162.912 266.072 162.67 264.974 162.187 C 263.877 161.704 262.922 161.057 262.109 160.244 C 261.297 159.432 260.65 158.477 260.167 157.38 C 259.684 156.282 259.442 155.097 259.442 153.823 L 259.442 128.929 C 256.588 130.598 254.36 132.826 252.758 135.614 Z " fill="url(#_lgradient_7)"></path><linearGradient id="_lgradient_8" x1="0.00517598343705572%" y1="49.99879227053139%" x2="100.00345065562453%" y2="49.99879227053139%"><stop offset="0%" stop-opacity="1" style="stop-color:rgb(183,26,157)"></stop><stop offset="56.699999999999996%" stop-opacity="1" style="stop-color:rgb(30,156,215)"></stop><stop offset="86.5%" stop-opacity="1" style="stop-color:rgb(0,117,190)"></stop><stop offset="99.4%" stop-opacity="1" style="stop-color:rgb(0,91,151)"></stop><stop offset="100%" stop-opacity="1" style="stop-color:rgb(0,91,151)"></stop></linearGradient><path d=" M 294.544 126.558 C 293.359 126.558 292.239 126.778 291.185 127.217 C 290.132 127.656 289.221 128.271 288.452 129.061 C 287.684 129.851 287.069 130.773 286.608 131.827 C 286.147 132.881 285.917 134 285.917 135.186 L 285.917 135.647 L 309.099 135.647 C 310.284 135.647 311.404 135.416 312.457 134.955 C 313.511 134.494 314.433 133.869 315.223 133.078 C 316.014 132.288 316.628 131.366 317.067 130.312 C 317.507 129.259 317.726 128.139 317.726 126.954 L 317.726 126.558 L 294.544 126.558 Z M 297.31 136.503 L 297.31 172 L 297.705 172 C 298.891 172 300.01 171.769 301.064 171.308 C 302.118 170.847 303.04 170.233 303.83 169.464 C 304.62 168.696 305.246 167.785 305.707 166.731 C 306.168 165.678 306.399 164.558 306.399 163.373 L 306.399 136.503 L 297.31 136.503 Z " fill="url(#_lgradient_8)"></path><linearGradient id="_lgradient_9" x1="-0.004021986861491023%" y1="49.99698492462312%" x2="771.2722885105243%" y2="49.99698492462312%"><stop offset="0%" stop-opacity="1" style="stop-color:rgb(183,26,157)"></stop><stop offset="56.699999999999996%" stop-opacity="1" style="stop-color:rgb(30,156,215)"></stop><stop offset="86.5%" stop-opacity="1" style="stop-color:rgb(0,117,190)"></stop><stop offset="99.4%" stop-opacity="1" style="stop-color:rgb(0,91,151)"></stop><stop offset="100%" stop-opacity="1" style="stop-color:rgb(0,91,151)"></stop></linearGradient><path d=" M 23.81 117.393 C 20.281 117.393 17.015 118.183 14.013 119.764 L 14.013 134.461 C 14.908 132.617 16.236 131.13 18.003 129.994 C 19.765 128.863 21.702 128.298 23.81 128.298 L 32.503 128.298 C 33.924 128.298 35.269 128.035 36.531 127.508 C 37.799 126.981 38.908 126.24 39.852 125.296 C 40.801 124.347 41.553 123.238 42.107 121.976 C 42.661 120.708 42.936 119.369 42.936 117.942 L 42.936 117.393 L 23.81 117.393 Z M 4.881 128.337 C 2.96 131.684 2 135.306 2 139.203 L 2 150.19 C 2 153.192 2.565 156.024 3.696 158.686 C 4.832 161.342 6.385 163.664 8.361 165.639 C 10.336 167.615 12.652 169.168 15.314 170.304 C 17.976 171.435 20.808 172 23.81 172 L 42.936 172 L 42.936 171.446 C 42.936 170.024 42.661 168.68 42.107 167.417 C 41.553 166.15 40.801 165.047 39.852 164.097 C 38.908 163.148 37.799 162.412 36.531 161.885 C 35.269 161.359 33.924 161.095 32.503 161.095 L 23.81 161.095 C 22.284 161.095 20.857 160.804 19.546 160.222 C 18.223 159.646 17.081 158.867 16.104 157.896 C 15.128 156.919 14.354 155.772 13.772 154.454 C 13.196 153.137 12.905 151.716 12.905 150.19 L 12.905 120.313 C 9.48 122.316 6.808 124.989 4.881 128.337 Z " fill="url(#_lgradient_9)"></path><linearGradient id="_lgradient_10" x1="-119.34329710144927%" y1="39.91183574879224%" x2="749.1576086956519%" y2="39.91183574879224%"><stop offset="0%" stop-opacity="1" style="stop-color:rgb(183,26,157)"></stop><stop offset="56.699999999999996%" stop-opacity="1" style="stop-color:rgb(30,156,215)"></stop><stop offset="86.5%" stop-opacity="1" style="stop-color:rgb(0,117,190)"></stop><stop offset="99.4%" stop-opacity="1" style="stop-color:rgb(0,91,151)"></stop><stop offset="100%" stop-opacity="1" style="stop-color:rgb(0,91,151)"></stop></linearGradient><path d=" M 55.394 128.468 L 55.394 140.784 C 56.14 139.203 57.249 137.952 58.72 137.03 C 60.191 136.108 61.804 135.647 63.56 135.647 C 64.79 135.647 65.964 135.888 67.084 136.371 C 68.203 136.854 69.169 137.502 69.981 138.314 C 70.794 139.126 71.441 140.092 71.924 141.212 C 72.407 142.331 72.649 143.506 72.649 144.735 L 72.649 153.823 C 72.649 155.097 72.407 156.282 71.924 157.38 C 71.441 158.477 70.794 159.432 69.981 160.244 C 69.169 161.057 68.203 161.704 67.084 162.187 C 65.964 162.67 64.79 162.912 63.56 162.912 C 62.287 162.912 61.102 162.67 60.004 162.187 C 58.906 161.704 57.951 161.057 57.139 160.244 C 56.327 159.432 55.679 158.477 55.196 157.38 C 54.713 156.282 54.472 155.097 54.472 153.823 L 54.472 144.735 L 54.472 128.995 C 51.618 130.62 49.39 132.826 47.787 135.614 C 46.185 138.402 45.384 141.442 45.384 144.735 L 45.384 153.823 C 45.384 156.326 45.856 158.686 46.8 160.903 C 47.743 163.12 49.039 165.052 50.685 166.698 C 52.332 168.345 54.263 169.64 56.481 170.584 C 58.698 171.528 61.058 172 63.56 172 C 66.063 172 68.412 171.528 70.607 170.584 C 72.802 169.64 74.723 168.345 76.37 166.698 C 78.016 165.052 79.322 163.12 80.288 160.903 C 81.254 158.686 81.737 156.326 81.737 153.823 L 81.737 144.735 C 81.737 142.232 81.254 139.873 80.288 137.655 C 79.322 135.438 78.016 133.506 76.37 131.86 C 74.723 130.213 72.802 128.918 70.607 127.974 C 68.412 127.03 66.063 126.558 63.56 126.558 C 60.663 126.558 57.94 127.195 55.394 128.468 Z " fill="url(#_lgradient_10)"></path><linearGradient id="_lgradient_11" x1="-192.1767489448778%" y1="49.99698492462308%" x2="543.5886942064203%" y2="49.99698492462308%"><stop offset="0%" stop-opacity="1" style="stop-color:rgb(183,26,157)"></stop><stop offset="56.699999999999996%" stop-opacity="1" style="stop-color:rgb(30,156,215)"></stop><stop offset="86.5%" stop-opacity="1" style="stop-color:rgb(0,117,190)"></stop><stop offset="99.4%" stop-opacity="1" style="stop-color:rgb(0,91,151)"></stop><stop offset="100%" stop-opacity="1" style="stop-color:rgb(0,91,151)"></stop></linearGradient><path d=" M 84.464 117.393 L 84.464 117.942 C 84.464 119.369 84.739 120.708 85.293 121.976 C 85.847 123.238 86.583 124.347 87.505 125.296 C 88.427 126.24 89.525 126.981 90.787 127.508 C 92.049 128.035 93.394 128.298 94.815 128.298 L 95.369 128.298 L 111.016 128.298 C 112.547 128.298 113.837 128.825 114.891 129.879 C 115.944 130.932 116.471 132.222 116.471 133.748 L 116.471 139.28 C 116.471 141.234 115.61 142.759 113.886 143.868 C 115.835 144.181 117.662 144.801 119.369 145.723 C 121.081 146.645 122.59 147.847 123.908 149.318 C 125.011 147.896 125.861 146.332 126.471 144.62 C 127.074 142.907 127.376 141.129 127.376 139.28 L 127.376 133.748 C 127.376 131.487 126.943 129.363 126.075 127.387 C 125.208 125.411 124.034 123.688 122.563 122.212 C 121.092 120.735 119.352 119.567 117.355 118.694 C 115.357 117.827 113.228 117.393 110.967 117.393 L 84.464 117.393 Z M 84.464 161.649 C 84.464 163.071 84.739 164.415 85.293 165.678 C 85.847 166.945 86.583 168.038 87.505 168.96 C 88.427 169.882 89.525 170.617 90.787 171.171 C 92.049 171.726 93.394 172 94.815 172 L 95.369 172 L 95.369 155.64 L 111.016 155.64 C 112.547 155.64 113.837 156.167 114.891 157.22 C 115.944 158.274 116.471 159.564 116.471 161.095 L 116.471 163.784 C 116.471 164.942 116.68 166.018 117.097 167.022 C 117.519 168.021 118.107 168.894 118.864 169.629 C 119.621 170.37 120.499 170.946 121.493 171.369 C 122.486 171.791 123.529 172 124.632 172 L 127.376 172 L 127.376 161.095 C 127.376 158.829 126.943 156.694 126.075 154.69 C 125.208 152.687 124.039 150.953 122.569 149.477 C 121.092 148 119.363 146.842 117.366 145.997 C 115.368 145.158 113.239 144.735 110.978 144.735 L 95.369 144.735 L 95.369 129.401 L 94.815 129.401 C 92.603 129.401 90.562 128.808 88.69 127.623 C 86.819 126.438 85.414 124.846 84.464 122.843 L 84.464 161.649 Z " fill="url(#_lgradient_11)"></path><linearGradient id="_lgradient_12" x1="-351.8463164251207%" y1="39.91183574879224%" x2="516.6545893719805%" y2="39.91183574879224%"><stop offset="0%" stop-opacity="1" style="stop-color:rgb(183,26,157)"></stop><stop offset="56.699999999999996%" stop-opacity="1" style="stop-color:rgb(30,156,215)"></stop><stop offset="86.5%" stop-opacity="1" style="stop-color:rgb(0,117,190)"></stop><stop offset="99.4%" stop-opacity="1" style="stop-color:rgb(0,91,151)"></stop><stop offset="100%" stop-opacity="1" style="stop-color:rgb(0,91,151)"></stop></linearGradient><path d=" M 139.916 128.468 L 139.916 140.784 C 140.663 139.203 141.766 137.952 143.242 137.03 C 144.713 136.108 146.327 135.647 148.083 135.647 C 149.312 135.647 150.487 135.888 151.606 136.371 C 152.726 136.854 153.692 137.502 154.504 138.314 C 155.316 139.126 155.964 140.092 156.447 141.212 C 156.93 142.331 157.171 143.506 157.171 144.735 L 157.171 153.823 C 157.171 155.097 156.93 156.282 156.447 157.38 C 155.964 158.477 155.316 159.432 154.504 160.244 C 153.692 161.057 152.726 161.704 151.606 162.187 C 150.487 162.67 149.312 162.912 148.083 162.912 C 146.81 162.912 145.624 162.67 144.526 162.187 C 143.429 161.704 142.474 161.057 141.662 160.244 C 140.849 159.432 140.202 158.477 139.719 157.38 C 139.236 156.282 138.994 155.097 138.994 153.823 L 138.994 144.735 L 138.994 128.995 C 136.135 130.62 133.912 132.826 132.31 135.614 C 130.707 138.402 129.906 141.442 129.906 144.735 L 129.906 153.823 C 129.906 156.326 130.378 158.686 131.322 160.903 C 132.266 163.12 133.561 165.052 135.208 166.698 C 136.854 168.345 138.786 169.64 141.003 170.584 C 143.22 171.528 145.58 172 148.083 172 C 150.585 172 152.934 171.528 155.13 170.584 C 157.325 169.64 159.246 168.345 160.892 166.698 C 162.538 165.052 163.845 163.12 164.811 160.903 C 165.771 158.686 166.259 156.326 166.259 153.823 L 166.259 144.735 C 166.259 142.232 165.771 139.873 164.811 137.655 C 163.845 135.438 162.538 133.506 160.892 131.86 C 159.246 130.213 157.325 128.918 155.13 127.974 C 152.934 127.03 150.585 126.558 148.083 126.558 C 145.185 126.558 142.463 127.195 139.916 128.468 Z " fill="url(#_lgradient_12)"></path><linearGradient id="_lgradient_13" x1="-381.37003802412625%" y1="49.99698492462312%" x2="340.0030172580391%" y2="49.99698492462312%"><stop offset="0%" stop-opacity="1" style="stop-color:rgb(183,26,157)"></stop><stop offset="56.699999999999996%" stop-opacity="1" style="stop-color:rgb(30,156,215)"></stop><stop offset="86.5%" stop-opacity="1" style="stop-color:rgb(0,117,190)"></stop><stop offset="99.4%" stop-opacity="1" style="stop-color:rgb(0,91,151)"></stop><stop offset="100%" stop-opacity="1" style="stop-color:rgb(0,91,151)"></stop></linearGradient><path d=" M 185.424 117.393 C 184.052 117.393 182.603 117.602 181.077 118.024 L 181.077 130.51 C 181.599 129.824 182.235 129.286 182.971 128.891 C 183.712 128.496 184.524 128.298 185.424 128.298 L 202.333 128.298 C 203.754 128.298 205.099 128.035 206.367 127.508 C 207.629 126.981 208.737 126.24 209.681 125.296 C 210.631 124.347 211.372 123.238 211.899 121.976 C 212.425 120.708 212.683 119.369 212.683 117.942 L 212.683 117.393 L 185.424 117.393 Z M 174.87 121.224 C 173.367 122.519 172.143 124.017 171.199 125.73 C 170.249 127.442 169.602 129.286 169.261 131.262 C 168.916 133.237 168.954 135.224 169.377 137.227 C 169.799 139.126 170.513 140.866 171.512 142.441 C 172.51 144.027 173.723 145.394 175.15 146.552 C 176.572 147.71 178.152 148.61 179.892 149.241 C 181.626 149.872 183.47 150.19 185.424 150.19 L 196.329 150.19 C 197.855 150.19 199.144 150.717 200.198 151.771 C 201.252 152.825 201.779 154.114 201.779 155.64 C 201.779 157.171 201.252 158.461 200.198 159.515 C 199.144 160.568 197.855 161.095 196.329 161.095 L 177.203 161.095 C 176.094 161.095 175.04 161.304 174.042 161.726 C 173.043 162.149 172.17 162.725 171.435 163.466 C 170.694 164.201 170.118 165.074 169.695 166.073 C 169.272 167.072 169.064 168.131 169.064 169.234 L 169.064 172 L 196.329 172 C 198.59 172 200.714 171.566 202.69 170.694 C 204.665 169.827 206.389 168.652 207.865 167.181 C 209.341 165.705 210.51 163.976 211.383 162.006 C 212.25 160.025 212.683 157.907 212.683 155.64 C 212.683 153.379 212.266 151.244 211.421 149.241 C 210.581 147.238 209.418 145.498 207.942 144.027 C 206.471 142.551 204.731 141.393 202.728 140.548 C 200.725 139.702 198.59 139.28 196.329 139.28 L 185.424 139.28 C 183.997 139.28 182.735 138.731 181.626 137.622 C 180.523 136.514 179.969 135.224 179.969 133.748 L 179.969 118.337 C 178.07 118.974 176.374 119.934 174.87 121.224 Z " fill="url(#_lgradient_13)"></path><linearGradient id="_lgradient_14" x1="-670.7746600103284%" y1="39.998794018330926%" x2="319.57651919435335%" y2="39.998794018330926%"><stop offset="0%" stop-opacity="1" style="stop-color:rgb(183,26,157)"></stop><stop offset="56.699999999999996%" stop-opacity="1" style="stop-color:rgb(30,156,215)"></stop><stop offset="86.5%" stop-opacity="1" style="stop-color:rgb(0,117,190)"></stop><stop offset="99.4%" stop-opacity="1" style="stop-color:rgb(0,91,151)"></stop><stop offset="100%" stop-opacity="1" style="stop-color:rgb(0,91,151)"></stop></linearGradient><path d=" M 224.938 126.493 L 224.472 126.493 C 223.292 126.493 222.167 126.723 221.113 127.184 C 220.059 127.645 219.148 128.26 218.386 129.028 C 217.617 129.796 217.003 130.707 216.536 131.761 C 216.081 132.815 215.845 133.934 215.845 135.12 L 215.845 149.74 C 216.635 148.072 217.809 146.744 219.373 145.756 C 220.927 144.768 222.633 144.274 224.472 144.274 L 224.938 144.274 L 224.938 135.581 L 239.032 135.581 C 240.217 135.581 241.331 135.361 242.391 134.922 C 243.439 134.483 244.361 133.869 245.157 133.078 C 245.941 132.288 246.567 131.366 247.028 130.312 C 247.489 129.259 247.725 128.139 247.725 126.954 L 247.725 126.493 L 224.938 126.493 Z M 224.938 145.196 L 224.472 145.196 C 223.292 145.196 222.167 145.427 221.113 145.888 C 220.059 146.349 219.148 146.963 218.386 147.732 C 217.617 148.5 217.003 149.411 216.536 150.465 C 216.081 151.518 215.845 152.638 215.845 153.823 L 215.845 165.151 C 215.845 166.073 216.02 166.951 216.371 167.785 C 216.723 168.619 217.217 169.355 217.853 169.991 C 218.49 170.628 219.225 171.122 220.059 171.473 C 220.894 171.824 221.772 172 222.694 172 L 239.032 172 C 240.217 172 241.331 171.769 242.391 171.308 C 243.439 170.847 244.361 170.233 245.157 169.464 C 245.941 168.696 246.567 167.785 247.028 166.731 C 247.489 165.678 247.725 164.558 247.725 163.373 L 247.725 162.912 L 224.938 162.912 L 224.938 154.284 L 234.482 154.284 C 235.673 154.284 236.787 154.054 237.846 153.593 C 238.895 153.132 239.817 152.517 240.612 151.749 C 241.403 150.981 242.023 150.069 242.489 149.016 C 242.945 147.962 243.175 146.842 243.175 145.657 L 243.175 145.196 L 224.938 145.196 Z " fill="url(#_lgradient_14)"></path><linearGradient id="_lgradient_15" x1="-728.0131917631921%" y1="39.998794018330926%" x2="197.49356499356486%" y2="39.998794018330926%"><stop offset="0%" stop-opacity="1" style="stop-color:rgb(183,26,157)"></stop><stop offset="56.699999999999996%" stop-opacity="1" style="stop-color:rgb(30,156,215)"></stop><stop offset="86.5%" stop-opacity="1" style="stop-color:rgb(0,117,190)"></stop><stop offset="99.4%" stop-opacity="1" style="stop-color:rgb(0,91,151)"></stop><stop offset="100%" stop-opacity="1" style="stop-color:rgb(0,91,151)"></stop></linearGradient><path d=" M 268.531 126.493 C 265.589 126.493 262.867 127.151 260.37 128.468 L 260.37 140.718 C 261.111 139.181 262.219 137.941 263.69 136.997 C 265.161 136.053 266.774 135.581 268.531 135.581 L 275.775 135.581 C 276.96 135.581 278.08 135.361 279.134 134.922 C 280.187 134.483 281.109 133.869 281.9 133.078 C 282.69 132.288 283.316 131.366 283.782 130.312 C 284.238 129.259 284.468 128.139 284.468 126.954 L 284.468 126.493 L 268.531 126.493 Z M 252.758 135.614 C 251.155 138.402 250.354 141.42 250.354 144.669 L 250.354 153.823 C 250.354 156.326 250.826 158.686 251.77 160.903 C 252.714 163.12 254.009 165.052 255.655 166.698 C 257.302 168.345 259.234 169.64 261.456 170.584 C 263.668 171.528 266.028 172 268.531 172 L 284.468 172 L 284.468 171.539 C 284.468 170.354 284.238 169.234 283.782 168.18 C 283.316 167.127 282.69 166.205 281.9 165.414 C 281.109 164.624 280.187 164.009 279.134 163.57 C 278.08 163.131 276.96 162.912 275.775 162.912 L 268.531 162.912 C 267.257 162.912 266.072 162.67 264.974 162.187 C 263.877 161.704 262.922 161.057 262.109 160.244 C 261.297 159.432 260.65 158.477 260.167 157.38 C 259.684 156.282 259.442 155.097 259.442 153.823 L 259.442 128.929 C 256.588 130.598 254.36 132.826 252.758 135.614 Z " fill="url(#_lgradient_15)"></path><linearGradient id="_lgradient_16" x1="-892.5690131124908%" y1="39.91183574879224%" x2="100.00345065562453%" y2="39.91183574879224%"><stop offset="0%" stop-opacity="1" style="stop-color:rgb(183,26,157)"></stop><stop offset="56.699999999999996%" stop-opacity="1" style="stop-color:rgb(30,156,215)"></stop><stop offset="86.5%" stop-opacity="1" style="stop-color:rgb(0,117,190)"></stop><stop offset="99.4%" stop-opacity="1" style="stop-color:rgb(0,91,151)"></stop><stop offset="100%" stop-opacity="1" style="stop-color:rgb(0,91,151)"></stop></linearGradient><path d=" M 294.544 126.558 C 293.359 126.558 292.239 126.778 291.185 127.217 C 290.132 127.656 289.221 128.271 288.452 129.061 C 287.684 129.851 287.069 130.773 286.608 131.827 C 286.147 132.881 285.917 134 285.917 135.186 L 285.917 135.647 L 309.099 135.647 C 310.284 135.647 311.404 135.416 312.457 134.955 C 313.511 134.494 314.433 133.869 315.223 133.078 C 316.014 132.288 316.628 131.366 317.067 130.312 C 317.507 129.259 317.726 128.139 317.726 126.954 L 317.726 126.558 L 294.544 126.558 Z M 297.31 136.503 L 297.31 172 L 297.705 172 C 298.891 172 300.01 171.769 301.064 171.308 C 302.118 170.847 303.04 170.233 303.83 169.464 C 304.62 168.696 305.246 167.785 305.707 166.731 C 306.168 165.678 306.399 164.558 306.399 163.373 L 306.399 136.503 L 297.31 136.503 Z " fill="url(#_lgradient_16)"></path></g></g></svg>